<mxfile host="app.diagrams.net" agent="Mozilla/5.0 (Macintosh; Intel Mac OS X 10_15_7) AppleWebKit/605.1.15 (KHTML, like Gecko) Version/17.5 Safari/605.1.15" version="26.2.10">
  <diagram name="第 1 页" id="eJHymN24xx117WFf0NfG">
    <mxGraphModel dx="517" dy="323" grid="1" gridSize="10" guides="1" tooltips="1" connect="1" arrows="1" fold="1" page="1" pageScale="1" pageWidth="827" pageHeight="1169" math="0" shadow="0">
      <root>
        <mxCell id="0" />
        <mxCell id="1" parent="0" />
        <mxCell id="EZ3W4FzZBsj1zNst_UjJ-33" value="&lt;font style=&quot;font-size: 8px;&quot;&gt;AI推理实例&lt;/font&gt;" style="text;html=1;align=center;verticalAlign=middle;whiteSpace=wrap;rounded=0;fontStyle=1;fontSize=10;" parent="1" vertex="1">
          <mxGeometry x="451.94" y="853" width="57.44" height="10.5" as="geometry" />
        </mxCell>
        <mxCell id="EZ3W4FzZBsj1zNst_UjJ-35" value="" style="sketch=0;points=[[0,0,0],[0.25,0,0],[0.5,0,0],[0.75,0,0],[1,0,0],[0,1,0],[0.25,1,0],[0.5,1,0],[0.75,1,0],[1,1,0],[0,0.25,0],[0,0.5,0],[0,0.75,0],[1,0.25,0],[1,0.5,0],[1,0.75,0]];outlineConnect=0;fontColor=#232F3E;fillColor=#01A88D;strokeColor=#ffffff;dashed=0;verticalLabelPosition=bottom;verticalAlign=top;align=center;html=1;fontSize=12;fontStyle=0;aspect=fixed;shape=mxgraph.aws4.resourceIcon;resIcon=mxgraph.aws4.augmented_ai;" parent="1" vertex="1">
          <mxGeometry x="459.75" y="810.19" width="39.81" height="39.81" as="geometry" />
        </mxCell>
        <mxCell id="Wt1u3QUYMkSBLmh_clsM-2" value="" style="ellipse;whiteSpace=wrap;html=1;aspect=fixed;fillColor=#dae8fc;strokeColor=#6c8ebf;" parent="1" vertex="1">
          <mxGeometry x="590.9" y="810" width="40" height="40" as="geometry" />
        </mxCell>
        <mxCell id="Wt1u3QUYMkSBLmh_clsM-3" value="&lt;font style=&quot;font-size: 8px;&quot;&gt;计算节点&lt;/font&gt;" style="text;html=1;align=center;verticalAlign=middle;whiteSpace=wrap;rounded=0;fontStyle=1" parent="1" vertex="1">
          <mxGeometry x="582.18" y="853" width="57.44" height="10.5" as="geometry" />
        </mxCell>
        <mxCell id="Wt1u3QUYMkSBLmh_clsM-4" value="" style="shape=flexArrow;endArrow=classic;startArrow=classic;html=1;rounded=0;startWidth=6.553287981859411;startSize=3.0809523809523807;width=5.238095238095238;endWidth=6.553287981859411;endSize=3.0809523809523807;fillColor=#f5f5f5;strokeColor=#666666;" parent="1" edge="1">
          <mxGeometry width="100" height="100" relative="1" as="geometry">
            <mxPoint x="501.56" y="846" as="sourcePoint" />
            <mxPoint x="591.56" y="846" as="targetPoint" />
          </mxGeometry>
        </mxCell>
        <mxCell id="Wt1u3QUYMkSBLmh_clsM-5" value="&lt;div style=&quot;line-height: 100%;&quot;&gt;&lt;div style=&quot;text-align: left;&quot;&gt;&lt;span style=&quot;font-size: 8px; line-height: 100%;&quot;&gt;1. 深度学习框架&lt;/span&gt;&lt;/div&gt;&lt;div style=&quot;text-align: left;&quot;&gt;&lt;font style=&quot;font-size: 8px; line-height: 100%;&quot;&gt;2.&amp;nbsp;硬件指令集依赖&lt;/font&gt;&lt;/div&gt;&lt;div style=&quot;text-align: left;&quot;&gt;&lt;font style=&quot;font-size: 8px; line-height: 100%;&quot;&gt;3. 推理资源需求&lt;/font&gt;&lt;/div&gt;&lt;/div&gt;" style="text;html=1;align=center;verticalAlign=middle;whiteSpace=wrap;rounded=0;" parent="1" vertex="1">
          <mxGeometry x="509.31" y="800" width="76.94" height="38" as="geometry" />
        </mxCell>
      </root>
    </mxGraphModel>
  </diagram>
</mxfile>
